# AST/ASF file generated using VICON BodyLanguage
# -----------------------------------------------
:version 1.10
:name VICON
:units
  mass 1.0
  length 0.45
  angle deg
:documentation
   .ast/.asf automatically generated from VICON data using
   VICON BodyBuilder and BodyLanguage model FoxedUp or BRILLIANT.MOD
:root
   order TX TY TZ RX RY RZ
   axis XYZ
   position 0 0 0  
   orientation 0 -0 0 
:bonedata
  begin
     id 1 
     name lhipjoint
     direction 0.515797 -0.759363 0.396637 
     length 2.47888 
     axis 0 -0 0  XYZ
  end
  begin
     id 2 
     name lfemur
     direction 0.34202 -0.939693 0  
     length 6.81885  
     axis 0 -0 20  XYZ
    dof rx ry rz
    limits (-160.0 20.0)
           (-70.0 70.0)
           (-60.0 70.0)
  end
  begin
     id 3 
     name ltibia
     direction 0.342037 -0.939687 0   
     length 7.89258   
     axis 0 -0 20   XYZ
    dof rx
    limits (-10.0 170.0)
  end
  begin
     id 4 
     name lfoot
     direction 0.173497 -0.476678 0.861787   
     length 2.51543   
     axis -90 -1.13533e-015 20   XYZ
    dof rx rz
    limits (-45.0 90.0)
           (-70.0 20.0)
  end
  begin
     id 5 
     name ltoes
     direction 1.53564e-011 -4.21897e-011 1   
     length 1.21388   
     axis -90 -1.13533e-015 20   XYZ
    dof rx
    limits (-90.0 20.0)
  end
  begin
     id 6 
     name rhipjoint
     direction -0.489454 -0.772941 0.403729   
     length 2.43534  
     axis 0 -0 0  XYZ 
  end
  begin
     id 7 
     name rfemur
     direction -0.34202 -0.939693 0   
     length 7.10357   
     axis 0 -0 -20   XYZ
    dof rx ry rz
    limits (-160.0 20.0)
           (-70.0 70.0)
           (-70.0 60.0)
  end
  begin
     id 8 
     name rtibia
     direction -0.34202 -0.939693 0   
     length 9.16127   
     axis 0 -0 -20   XYZ
    dof rx
    limits (-10.0 170.0)
 end
 begin
     id 9 
     name rfoot
     direction -0.270974 -0.748671 0.605033   
     length 1.74894  
     axis -90 1.13533e-015 -20   XYZ
    dof rx rz
    limits (-45.0 90.0)
           (-20.0 70.0)
  end
  begin
     id 10 
     name rtoes
     direction -1.53557e-011 -4.21759e-011 1   
     length 0.787585   
     axis -90 1.13533e-015 -20   XYZ
    dof rx
    limits (-90.0 20.0)
  end
  begin
     id 11 
     name lowerback
     direction -0.0140249 0.999561 0.0260968   
     length 2.16963   
     axis 0 -0 0   XYZ
    dof rx ry rz
    limits (-20.0 45.0)
           (-30.0 30.0)
           (-30.0 30.0)
  end
  begin
     id 12 
     name upperback
     direction 0.00860018 0.999959 -0.002711   
     length 2.1726   
     axis 0 -0 0   XYZ
    dof rx ry rz
    limits (-20.0 45.0)
           (-30.0 30.0)
           (-30.0 30.0)
  end
  begin
     id 13 
     name thorax
     direction 0.015211 0.999782 -0.0143191   
     length 2.17061   
     axis 0 -0 0   XYZ
    dof rx ry rz
    limits (-20.0 45.0)
           (-30.0 30.0)
           (-30.0 30.0)
  end
  begin
     id 14 
     name lowerneck
     direction -0.0140143 0.999447 0.030145   
     length 2.26749   
     axis 0 -0 0   XYZ
    dof rx ry rz
    limits (-20.0 45.0)
           (-30.0 30.0)
           (-30.0 30.0)
  end
  begin
     id 15 
     name upperneck
     direction 0.118062 0.961438 -0.248392   
     length 2.22728   
     axis 0 -0 0   XYZ
    dof rx ry rz
    limits (-20.0 45.0)
           (-30.0 30.0)
           (-30.0 30.0)
  end
  begin
     id 16
     name head
     direction 0.0431885 0.9954 -0.085514  
     length 2.28786  
     axis 0 -0 0   XYZ
    dof rx ry rz
    limits (-20.0 45.0)
           (-30.0 30.0)
           (-30.0 30.0)
  end
  begin
     id 17 
     name lclavicle
     direction 0.912126 0.409548 0.0172323  
     length 4.31571  
     axis 0 -0 0   XYZ
    dof ry rz
    limits (-20.0 10.0)
           (0.0 20.0)
  end
  begin
     id 18 
     name lhumerus
     direction 1 -4.48977e-011 1.93091e-027   
     length 5.13658   
     axis 180 -30 -90   XYZ
    dof rx ry rz
    limits (-60.0 90.0)
           (-90.0 90.0)
           (-90.0 90.0)
  end
  begin
     id 19
     name lradius
     direction 1 -4.48916e-011 6.84018e-027   
     length 3.22473   
     axis 180 -30 -90   XYZ
    dof rx
    limits (-10.0 170.0)
  end
  begin
     id 20
     name lwrist
     direction 1 -4.48987e-011 7.01981e-027   
     length 1.61236   
     axis -4.37994e-015 90 90   XYZ
    dof ry
    limits (-180.0 0.0)
 end
  begin
     id 21 
     name lhand
     direction 1 -4.49037e-011 1.40335e-026   
     length 0.936406   
     axis -8.96029e-015 90 90   XYZ
    dof rx rz
    limits (-90.0 90.0)
           (-45.0 45.0)
  end
  begin
     id 22 
     name lfingers
     direction 1 -4.48886e-011 2.8104e-026   
     length 0.754955   
     axis -1.79203e-014 90 90   XYZ
    dof rx
    limits (0.0 90.0)
  end
  begin
     id 23
     name lthumb
     direction 0.707107 -6.34937e-011 0.707107   
     length 1.08397   
     axis -90 45 -4.48555e-014   XYZ
    dof rx rz
    limits (-45.0 45.0)
           (-45.0 45.0)
  end
  begin
     id 24 
     name rclavicle
     direction -0.947962 0.317997 0.0156638   
     length 4.86918  
     axis 0 -0 0   XYZ 
    dof ry rz
    limits (-10.0 20.0)
           (-20.0 0.0)
  end
  begin
     id 25 
     name rhumerus
     direction -1 -4.48951e-011 2.80534e-018  
     length 5.60911   
     axis 180 30 90   XYZ
    dof rx ry rz
    limits (-90.0 60.0)
           (-90.0 90.0)
           (-90.0 90.0)
  end
  begin
     id 26 
     name rradius
     direction -1 -4.4898e-011 2.11315e-027   
     length 3.38704   
     axis 180 30 90   XYZ
    dof rx
    limits (-10.0 170.0)
  end
  begin
     id 27 
     name rwrist
     direction -1 -4.48933e-011 7.02314e-027   
     length 1.69352   
     axis -4.37994e-015 -90 -90   XYZ
    dof ry
    limits (-180.0 0.0)
  end
  begin
     id 28
     name rhand
     direction -1 -4.48937e-011 1.40458e-026   
     length 0.755878   
     axis -8.96029e-015 -90 -90   XYZ
    dof rx rz
    limits (-90.0 90.0)
           (-45.0 45.0)
  end
  begin
     id 29
     name rfingers
     direction -1 -4.4901e-011 2.80737e-026   
     length 0.609409   
     axis -1.79203e-014 -90 -90   XYZ
    dof rx
    limits (0.0 90.0)
  end
  begin
     id 30
     name rthumb
     direction -0.707107 -6.34968e-011 0.707107   
     length 0.874992   
     axis -90 -45 4.48555e-014   XYZ
    dof rx rz
    limits (-45.0 45.0)
           (-45.0 45.0)
  end
:hierarchy
  begin
    root lhipjoint rhipjoint lowerback
    lhipjoint lfemur
    lfemur ltibia
    ltibia lfoot
    lfoot ltoes
    rhipjoint rfemur
    rfemur rtibia
    rtibia rfoot
    rfoot rtoes
    lowerback upperback
    upperback thorax
    thorax lowerneck lclavicle rclavicle
    lowerneck upperneck
    upperneck head
    lclavicle lhumerus
    lhumerus lradius
    lradius lwrist
    lwrist lhand lthumb
    lhand lfingers
    rclavicle rhumerus
    rhumerus rradius
    rradius rwrist
    rwrist rhand rthumb
    rhand rfingers
  end

#!OML:ASF C:\ViconDB\ViconDB\414\Spring2016\041811\Spring2016.ASF
:FULLY-SPECIFIED
:DEGREES
62
root 6.68287 18.3107 -6.41754 -177.781 -8.99893 179.182
lowerback -4.33271 1.02846 -3.53232
upperback 1.3489 1.55966 0.444819
thorax 3.71775 0.687193 2.55663
lowerneck -15.2447 3.24385 -2.95747
upperneck 26.7032 2.35173 6.82527
head 10.9954 1.17607 3.22863
rclavicle 1.52412e-014 1.98785e-016
rhumerus -43.8607 -21.4484 -82.5823
rradius 31.7891
rwrist 42.3026
rhand -35.1409 -15.7923
rfingers 7.12502
rthumb -8.28077 -45.61
lclavicle 1.52412e-014 1.98785e-016
lhumerus -37.4778 -4.69642 93.499
lradius 24.8923
lwrist -31.0869
lhand -28.5572 15.2348
lfingers 7.12502
lthumb -1.92401 45.2059
rfemur 0.886413 -13.3556 18.9478
rtibia 12.1683
rfoot -10.0876 -1.20581
rtoes -12.5659
lfemur -7.743 -11.6877 -17.8368
ltibia 22.2102
lfoot -20.2842 9.16235
ltoes -10.1121
63
root 6.68303 18.3111 -6.42145 -177.764 -8.97071 179.191
lowerback -4.33631 1.02892 -3.5417
upperback 1.34607 1.56086 0.44675
thorax 3.71649 0.687624 2.56402
lowerneck -15.2577 3.23105 -2.96777
upperneck 26.6911 2.34259 6.81404
head 10.994 1.17052 3.22514
rclavicle -9.36617e-015 8.44835e-016
rhumerus -43.8285 -21.4734 -82.5415
rradius 31.8108
rwrist 42.2291
rhand -35.1398 -15.6648
rfingers 7.12502
rthumb -8.27968 -45.4826
lclavicle -9.36617e-015 8.44835e-016
lhumerus -37.4404 -4.60976 93.4564
lradius 24.8518
lwrist -31.1945
lhand -28.5476 15.1038
lfingers 7.12502
lthumb -1.91475 45.0749
rfemur 0.884949 -13.3678 18.9552
rtibia 12.1495
rfoot -10.1272 -1.22462
rtoes -12.69
lfemur -7.75482 -11.7102 -17.8223
ltibia 22.2266
lfoot -20.308 9.18901
ltoes -10.1056
64
root 6.68369 18.3121 -6.42551 -177.738 -8.945 179.201
lowerback -4.33466 1.02758 -3.5614
upperback 1.33452 1.55986 0.451252
thorax 3.70306 0.687091 2.57945
lowerneck -15.2632 3.23829 -3.01688
upperneck 26.7338 2.35233 6.84147
head 11.0089 1.17129 3.24614
rclavicle -2.60423e-014 9.44227e-016
rhumerus -43.8063 -21.4008 -82.5631
rradius 31.8835
rwrist 42.0094
rhand -35.1277 -15.6769
rfingers 7.12502
rthumb -8.26805 -45.4951
lclavicle -2.60423e-014 9.44227e-016
lhumerus -37.4341 -4.61923 93.4798
lradius 24.8379
lwrist -31.2042
lhand -28.5588 15.1051
lfingers 7.12502
lthumb -1.92564 45.0762
rfemur 0.871269 -13.3578 18.9727
rtibia 12.1342
rfoot -10.1438 -1.2328
rtoes -12.5404
lfemur -7.78505 -11.6119 -17.7984
ltibia 22.2387
lfoot -20.2805 9.10977
ltoes -10.1201
65
root 6.68399 18.3121 -6.4304 -177.737 -8.90993 179.196
lowerback -4.31156 1.01663 -3.60755
upperback 1.3204 1.54649 0.460411
thorax 3.67497 0.680082 2.61311
lowerneck -15.3033 3.29872 -3.08427
upperneck 26.8081 2.42656 6.92262
head 11.0369 1.20603 3.30035
rclavicle 1.40345e-014 -4.47266e-016
rhumerus -43.863 -21.6247 -82.3596
rradius 31.9448
rwrist 42.227
rhand -35.3307 -15.6678
rfingers 7.12502
rthumb -8.46391 -45.4782
lclavicle 1.40345e-014 -4.47266e-016
lhumerus -37.4361 -4.55146 93.4868
lradius 24.8443
lwrist -31.1295
lhand -28.5347 15.1111
lfingers 7.12502
lthumb -1.90235 45.0824
rfemur 0.88449 -13.3083 18.9673
rtibia 12.1337
rfoot -10.1329 -1.23844
rtoes -12.5404
lfemur -7.7652 -11.6465 -17.8072
ltibia 22.2456
lfoot -20.3377 9.15952
ltoes -10.0676
66
root 6.68346 18.311 -6.43552 -177.745 -8.88155 179.185
lowerback -4.27866 1.03609 -3.60286
upperback 1.31214 1.57152 0.434363
thorax 3.64684 0.693596 2.58431
lowerneck -15.1597 3.3332 -2.94113
upperneck 26.6926 2.47766 6.80355
head 10.9672 1.23038 3.23145
rclavicle 5.5961e-014 -1.05853e-014
rhumerus -43.8709 -21.6603 -82.3392
rradius 32.0091
rwrist 42.0809
rhand -35.2871 -15.8353
rfingers 7.12502
rthumb -8.42186 -45.6474
lclavicle 5.5961e-014 -1.05853e-014
lhumerus -37.4755 -4.58831 93.4887
lradius 24.8523
lwrist -31.2163
lhand -28.6253 15.1396
lfingers 7.12502
lthumb -1.9898 45.1101
rfemur 0.901919 -13.2573 18.9538
rtibia 12.1467
rfoot -10.1205 -1.22579
rtoes -12.4816
lfemur -7.72156 -11.7154 -17.8351
ltibia 22.2425
lfoot -20.3913 9.2494
ltoes -10.0524
